<?xml version="1.0" encoding="UTF-8"?>
<svg id="Layer_1" data-name="Layer 1" xmlns="http://www.w3.org/2000/svg" viewBox="0 0 1705.88 469.25">
  <defs>
    <style>
      .cls-1 {
        fill: #fff;
      }

      .cls-1, .cls-2 {
        fill-rule: evenodd;
      }

      .cls-3 {
        fill: #fa4452;
      }
    </style>
  </defs>
  <g>
    <path class="cls-3" d="M192.79,0C86.48,0,0,86.48,0,192.79s86.48,192.79,192.79,192.79,192.79-86.48,192.79-192.79S299.08,0,192.79,0Z"/>
    <path class="cls-1" d="M336.68,252.55c-2.88,6.93-10.83,10.21-17.76,7.33-6.93-2.88-10.21-10.83-7.35-17.76,2.88-6.93,10.83-10.21,17.76-7.35,6.93,2.88,10.21,10.83,7.33,17.76"/>
    <path class="cls-1" d="M252.28,336.78c-6.95,2.86-14.88-.44-17.76-7.37-2.86-6.93.44-14.9,7.37-17.76,6.95-2.86,14.9.44,17.76,7.37,2.86,6.95-.44,14.88-7.37,17.76Z"/>
    <path class="cls-1" d="M133.02,336.68c-6.93-2.88-10.21-10.83-7.35-17.76,2.88-6.93,10.83-10.21,17.78-7.35,6.93,2.88,10.21,10.83,7.33,17.76-2.88,6.93-10.83,10.23-17.76,7.33"/>
    <path class="cls-1" d="M48.77,252.26c-2.86-6.93.44-14.88,7.37-17.74,6.95-2.86,14.88.44,17.74,7.37,2.86,6.95-.44,14.88-7.37,17.76-6.93,2.86-14.88-.44-17.74-7.37"/>
    <path class="cls-1" d="M48.9,133.02c2.88-6.93,10.83-10.21,17.78-7.35,6.93,2.88,10.21,10.83,7.33,17.76-2.88,6.93-10.83,10.21-17.76,7.33-6.93-2.88-10.21-10.83-7.35-17.76"/>
    <path class="cls-1" d="M133.3,48.77c6.95-2.86,14.88.44,17.76,7.37,2.86,6.93-.44,14.88-7.38,17.74-6.93,2.86-14.88-.44-17.74-7.37-2.86-6.95.44-14.88,7.37-17.76"/>
    <path class="cls-1" d="M252.55,48.9c6.93,2.88,10.21,10.83,7.33,17.76-2.88,6.93-10.83,10.21-17.76,7.33-6.93-2.88-10.21-10.83-7.35-17.76,2.88-6.93,10.83-10.23,17.76-7.35"/>
    <path class="cls-1" d="M336.8,133.3c2.86,6.95-.44,14.9-7.37,17.76-6.93,2.86-14.88-.44-17.76-7.37-2.86-6.93.44-14.88,7.37-17.74,6.95-2.86,14.88.44,17.76,7.37"/>
    <path class="cls-1" d="M207.01,218.84c-10.57,14.55-18.09,38.09-4.12,52.05,9.48,9.48,2.33,25.2-10.45,25.2s-19.93-15.72-10.45-25.2c13.97-13.97,6.47-37.49-4.12-52.05-1.84-2.53-8.82-10.12-11.16-11.81-14.57-10.57-38.09-18.09-52.05-4.12-9.48,9.48-25.2,2.33-25.2-10.45s15.73-19.93,25.2-10.45c13.97,13.97,37.49,6.45,52.05-4.12,2.53-1.84,10.12-8.82,11.81-11.16,10.57-14.57,18.09-38.07,4.12-52.05-9.48-9.48-2.33-25.2,10.45-25.2s19.93,15.73,10.45,25.2c-13.97,13.97-6.45,37.49,4.12,52.05,1.84,2.53,8.82,10.12,11.16,11.81,14.57,10.57,38.07,18.09,52.05,4.12,9.48-9.48,25.2-2.33,25.2,10.45s-15.72,19.93-25.2,10.45c-13.97-13.97-37.49-6.45-52.05,4.12-2.53,1.84-10.12,8.82-11.81,11.16Z"/>
    <path class="cls-1" d="M266.92,118.65c7.99,7.99,7.99,20.93,0,28.9-7.99,7.97-20.93,7.99-28.9,0-7.97-7.99-7.99-20.93,0-28.9,7.99-7.99,20.93-7.99,28.9,0Z"/>
    <path class="cls-1" d="M266.94,266.94c-7.99,7.99-20.93,7.99-28.92,0-7.99-7.99-7.99-20.93,0-28.9,7.99-7.99,20.91-7.99,28.9,0,7.99,7.99,7.99,20.93,0,28.9"/>
    <path class="cls-1" d="M118.64,266.94c-7.99-7.99-7.99-20.93,0-28.9,7.99-7.99,20.93-7.99,28.9,0,7.99,7.99,7.99,20.93,0,28.9-7.99,7.99-20.93,7.99-28.9,0Z"/>
    <path class="cls-1" d="M118.64,118.65c7.99-7.99,20.93-7.99,28.9,0,7.99,7.99,7.99,20.93,0,28.92s-20.93,7.99-28.9,0c-7.99-7.99-7.99-20.91,0-28.9"/>
  </g>
  <path class="cls-2" d="M784.82,18.87c3.74,0,6.78-3.04,6.78-6.79s-3.05-6.79-6.78-6.79-6.79,3.04-6.79,6.79,3.05,6.79,6.79,6.79"/>
  <path class="cls-2" d="M779.52,121.9h10.6V31.74h-10.6v90.15Z"/>
  <path class="cls-2" d="M568.36,76.58c0-18.87,14.79-34.24,32.98-34.24s32.98,15.36,32.98,34.24v1.41c-.7,18.62-15.19,33.19-32.98,33.19s-32.98-15.52-32.98-34.6M601.33,121.78c12.81,0,24.69-5.66,32.97-15.61v15.72h10.61V31.74h-10.61v15.44c-8.21-9.84-20.09-15.44-32.97-15.44-24.03,0-43.58,20.11-43.58,44.84s19.55,45.2,43.58,45.2"/>
  <path class="cls-2" d="M716.38,111.17c-17.78,0-32.26-14.57-32.98-33.19v-1.41c0-18.87,14.79-34.24,32.98-34.24s32.97,15.36,32.97,34.24-14.79,34.6-32.97,34.6M759.95,76.58c0-24.73-19.55-44.84-43.58-44.84-12.88,0-24.76,5.59-32.98,15.44v-15.44h-10.61v122.65h10.61v-48.22c8.28,9.96,20.17,15.61,32.98,15.61,24.03,0,43.58-20.27,43.58-45.2"/>
  <path class="cls-2" d="M958.28,31.74c-10.07,0-19.6,4.11-26.5,11.35v-11.35h-10.24v90.15h10.24v-53.39c.35-14.52,12.23-26.34,26.5-26.34s26.31,11.8,26.31,26.31v53.42h10.42v-53.42c0-20.26-16.48-36.74-36.73-36.74"/>
  <path class="cls-2" d="M1049.83,111.62l-1.05.29c-1.01.28-2.72.61-5.15.61-4.26,0-6.09-2.7-6.09-9.04v-61.38h12.51v-10.35h-12.51V1.46h-10.86v30.28h-12.58v10.35h12.58v61.69c0,6.78,1.22,11.2,3.82,13.89,2.41,2.76,6.11,4.22,10.69,4.22,3.44,0,6.49-.47,8.58-1.34l.59-.24-.53-8.69Z"/>
  <path class="cls-2" d="M856.51,42.27c15.54,0,28.87,11.24,32.07,26.86h-64.67c3.55-15.87,16.81-26.86,32.59-26.86h0ZM884.14,95.95c-5.78,9.57-16.36,15.52-27.64,15.52-17.53,0-31.98-14.02-33.28-32.1h71.47c2.92,0,5.21-2.12,5.21-4.85v-.79c-1.87-23.88-20.53-41.89-43.4-41.89-24.12,0-43.76,20.28-43.76,45.2s19.63,44.84,43.76,44.84c14.74,0,28.3-7.58,36.33-20.27l-8.69-5.66Z"/>
  <path class="cls-2" d="M533.35,78.38s-2.75-2.15-5.73-3.39c-2.97-1.25-7.23-2.7-16.07-4.86-1.2-.29-2.37-.54-3.47-.82-5.91-1.48-10.58-3.47-13.87-5.93-3.27-2.82-4.49-5.16-4.35-8.33.15-3.35,2.15-6.6,5.66-9.16,3.99-2.95,9.81-4.42,16.4-4.13,7.47.33,13.15,4.06,19.28,8.53l.59.43,7.71-7.18c-.93-.88-1.11-1.02-3.69-2.79-6.06-4.1-13.5-8.44-23.46-8.87-8.67-.38-16.41,1.39-22.4,5.14-6.49,4.4-10.59,10.79-10.67,17.56-.07,5.05.97,9.78,6.02,14.64,6.03,5.81,15.41,8.87,23.99,10.53,7.36,1.42,14.16,4.15,17.58,6.99,4.09,3.75,5.54,6.47,5.54,10.37-.16,3.74-2.6,7.31-6.77,9.84-4.18,3.13-10.16,4.77-16.4,4.49-8.22-.36-16.71-3.94-25.27-10.64l-.59-.47-7.56,6.93.75.65c9.96,8.6,20.8,13.29,32.21,13.93,8.55.38,16-1.66,22.81-6.21,7.04-4.87,10.93-11.12,11.24-18.07.32-7.39-3.31-14.74-9.48-19.19"/>
  <path d="M1632.75,270.81h-16.87v-36.88h16.87v-52.19h43.13v52.19h30v36.88h-30v45.63c0,23.75,2.81,37.5,18.75,37.5,2.81,0,5.62-.31,7.81-.62v37.5c-4.69.63-13.44.94-18.13.94-33.44,0-51.56-24.69-51.56-60v-60.94Z"/>
  <path d="M1478.57,309.88c0,24.38,19.06,43.44,43.13,43.44s43.44-19.38,43.44-42.81-19.69-42.81-43.44-42.81-43.13,19.69-43.13,42.19ZM1438.93,309.25c0-41.08,32.45-80.31,83.08-80.31,45.25,0,82.46,33.75,82.46,81.25,0,44.28-32.14,81.56-83.39,81.56s-82.14-41.42-82.14-82.5Z"/>
  <path d="M1239.88,244.56l-21.25,25c-8.75-6.56-17.19-10-25.31-10-9.38,0-16.56,5.63-16.56,12.81s4.06,10,24.37,17.19c35.63,12.5,46.57,23.13,46.57,47.5,0,32.19-26.57,55-64.07,55-23.44,0-42.81-8.44-58.13-25.31l22.19-26.25c11.87,11.88,24.06,18.12,36.25,18.12,10.94,0,19.38-7.19,19.38-16.87,0-8.44-3.44-12.19-23.44-19.38-37.19-13.13-44.69-23.13-44.69-45.31,0-29.69,24.06-48.75,54.69-48.75,18.75,0,35.31,5.31,50,16.25Z"/>
  <path d="M774.48,387.07v-153.13h43.12v19.06c12.5-15.94,28.44-24.06,47.81-24.06,30.94,0,56.88,17.81,56.88,59.06v99.07h-43.13v-84.07c0-25.63-7.19-37.5-29.06-37.5s-32.5,13.44-32.5,42.19v79.38h-43.12Z"/>
  <path d="M700.92,233.94h43.13v153.13h-43.13v-153.13ZM696.86,187c0-14.06,11.56-25.63,25.62-25.63s25.62,11.56,25.62,25.63-11.56,25.63-25.62,25.63-25.62-11.56-25.62-25.63Z"/>
  <path d="M590.2,244.56l-21.25,25c-8.75-6.56-17.19-10-25.31-10-9.37,0-16.56,5.63-16.56,12.81s4.06,10,24.38,17.19c35.62,12.5,46.56,23.13,46.56,47.5,0,32.19-26.56,55-64.06,55-23.44,0-42.81-8.44-58.13-25.31l22.19-26.25c11.88,11.88,24.06,18.12,36.25,18.12,10.94,0,19.37-7.19,19.37-16.87,0-8.44-3.43-12.19-23.44-19.38-37.19-13.13-44.69-23.13-44.69-45.31,0-29.69,24.06-48.75,54.69-48.75,18.75,0,35.31,5.31,50,16.25Z"/>
  <path d="M659.18,311.76c0,23.75,4.06,37.5,20,37.5,1.87,0,3.76-.31,5.94-.62v37.5c-4.69.63-10.31.93-14.38.93-38.13,0-54.69-26.56-54.69-61.87v-162.09h43.13v148.66Z"/>
  <path d="M1311.36,253.94c12.19-16.56,28.12-25,47.81-25,21.88,0,35.94,8.13,46.25,20.94,8.13,10.31,10.63,24.07,10.63,40.94v96.25h-43.12v-84.06c0-27.19-7.81-37.51-29.07-37.51-21.87,0-32.49,14.38-32.49,43.13v78.44h-43.13v-225.7h43.13v92.57Z"/>
  <path class="cls-2" d="M1107.95,371.73l-.46,24.21c-.71,10.94-2.23,19.41-4.23,25.2-9.69,28.44-40,48.13-77.19,48.13-44.38,0-78.13-27.81-81.56-64.06h46.25c4.38,18.44,16.56,27.5,36.25,27.5,22.53,0,35.68-11.71,37.81-35.85v-24.12c-59.76,40.02-120.58-9.25-120.58-62.49,0-43.12,31.33-72.93,69.33-76.88,20.31,0,38.13,3.44,51.25,20v-20h43.13v138.37ZM1023.87,267.11c-23.75,0-42.81,20-42.81,42.5,0,23.75,18.44,43.13,42.81,43.13,24.38,0,43.12-19.69,43.12-42.81,0-23.12-19.37-42.81-43.12-42.81Z"/>
</svg>